<svg width="20" height="20" viewBox="0 0 20 20" fill="none" xmlns="http://www.w3.org/2000/svg">
<path d="M15 3.3335H5C4.07917 3.3335 3.31167 4.09183 3.53917 4.9835C3.78146 5.92836 4.22765 6.80874 4.8464 7.56281C5.46515 8.31689 6.24146 8.92638 7.12083 9.3485C7.80667 9.67683 8.33333 10.3218 8.33333 11.0818V16.1518C8.33341 16.2938 8.36976 16.4334 8.43895 16.5574C8.50814 16.6814 8.60786 16.7857 8.72866 16.8603C8.84946 16.935 8.98732 16.9775 9.12917 16.9839C9.27102 16.9903 9.41215 16.9603 9.53916 16.8968L11.2058 16.0635C11.3442 15.9943 11.4606 15.888 11.542 15.7564C11.6234 15.6249 11.6666 15.4732 11.6667 15.3185V11.0818C11.6667 10.3218 12.1933 9.67683 12.8783 9.3485C13.758 8.92657 14.5347 8.31716 15.1537 7.56308C15.7727 6.80899 16.2192 5.92852 16.4617 4.9835C16.6875 4.09183 15.9192 3.3335 15 3.3335Z" stroke="black" stroke-width="2"/>
</svg>
