<svg width="20" height="20" viewBox="0 0 20 20" fill="none" xmlns="http://www.w3.org/2000/svg">
<path d="M15 3.3335H5.00001C4.07918 3.3335 3.31168 4.09183 3.53918 4.9835C3.78148 5.92836 4.22766 6.80874 4.84641 7.56281C5.46516 8.31689 6.24148 8.92638 7.12085 9.3485C7.80668 9.67683 8.33335 10.3218 8.33335 11.0818V16.1518C8.33342 16.2938 8.36978 16.4334 8.43897 16.5574C8.50816 16.6814 8.60788 16.7857 8.72868 16.8603C8.84947 16.935 8.98734 16.9775 9.12919 16.9839C9.27103 16.9903 9.41216 16.9603 9.53918 16.8968L11.2058 16.0635C11.3442 15.9943 11.4607 15.888 11.5421 15.7564C11.6234 15.6249 11.6666 15.4732 11.6667 15.3185V11.0818C11.6667 10.3218 12.1933 9.67683 12.8783 9.3485C13.758 8.92657 14.5347 8.31716 15.1537 7.56308C15.7728 6.80899 16.2192 5.92852 16.4617 4.9835C16.6875 4.09183 15.9192 3.3335 15 3.3335Z" stroke="black" stroke-width="2"/>
</svg>
