<svg viewBox="0 0 20 20" fill="none" xmlns="http://www.w3.org/2000/svg">
<g clip-path="url(#clip0_274_4336)">
<path d="M12.6667 16V14.6667C12.6667 13.9594 12.3857 13.2811 11.8856 12.781C11.3855 12.281 10.7072 12 10 12H5.33334C4.62609 12 3.94782 12.281 3.44772 12.781C2.94762 13.2811 2.66667 13.9594 2.66667 14.6667V16M15.3333 7.33333V11.3333M17.3333 9.33333H13.3333M10.3333 6.66667C10.3333 8.13943 9.13943 9.33333 7.66667 9.33333C6.19391 9.33333 5 8.13943 5 6.66667C5 5.19391 6.19391 4 7.66667 4C9.13943 4 10.3333 5.19391 10.3333 6.66667Z" stroke="#1E1E1E" stroke-width="1.6" stroke-linecap="round" stroke-linejoin="round"/>
</g>
<defs>
<clipPath id="clip0_274_4336">
<rect width="16" height="16" fill="white" transform="translate(2 2)"/>
</clipPath>
</defs>
</svg>
