<svg viewBox="0 0 20 20" fill="none" xmlns="http://www.w3.org/2000/svg">
<g clip-path="url(#clip0_415_11454)">
<path fill-rule="evenodd" clip-rule="evenodd" d="M9.41083 6.91098C9.56711 6.75476 9.77903 6.66699 10 6.66699C10.221 6.66699 10.4329 6.75476 10.5892 6.91098L15.3033 11.6251C15.3829 11.702 15.4464 11.794 15.4901 11.8956C15.5338 11.9973 15.5567 12.1067 15.5577 12.2173C15.5587 12.328 15.5376 12.4377 15.4957 12.5401C15.4538 12.6425 15.3919 12.7356 15.3137 12.8138C15.2354 12.8921 15.1424 12.9539 15.04 12.9958C14.9375 13.0377 14.8278 13.0588 14.7172 13.0579C14.6065 13.0569 14.4972 13.0339 14.3955 12.9902C14.2938 12.9466 14.2019 12.8831 14.125 12.8035L10 8.67848L5.875 12.8035C5.71783 12.9553 5.50733 13.0393 5.28883 13.0374C5.07033 13.0355 4.86132 12.9478 4.70682 12.7933C4.55231 12.6388 4.46467 12.4298 4.46277 12.2113C4.46087 11.9928 4.54487 11.7823 4.69667 11.6251L9.41083 6.91098Z" fill="black"/>
</g>
<defs>
<clipPath id="clip0_415_11454">
<rect width="20" height="20" fill="white" transform="matrix(0 1 -1 0 20 0)"/>
</clipPath>
</defs>
</svg>
